<?xml version="1.0" encoding="iso-8859-1"?>
<!-- Generator: Adobe Illustrator 16.0.0, SVG Export Plug-In . SVG Version: 6.00 Build 0)  -->
<!DOCTYPE svg PUBLIC "-//W3C//DTD SVG 1.1//EN" "http://www.w3.org/Graphics/SVG/1.1/DTD/svg11.dtd">
<svg version="1.1" id="Capa_1" xmlns="http://www.w3.org/2000/svg" xmlns:xlink="http://www.w3.org/1999/xlink" x="0px" y="0px"
	 width="362.842px" height="362.843px" viewBox="0 0 362.842 362.843" style="enable-background:new 0 0 362.842 362.843;"
	 xml:space="preserve">
<g>
	<g>
		<path style="fill:#030303;" d="M338.444,93.39l-3.426-5.85l-0.217,0.177C303.078,35.692,245.806,0.878,180.535,0.878
			C80.99,0.883,0,81.873,0,181.424s80.99,180.541,180.541,180.541c22.151,0,43.377-4.031,63.007-11.362
			c13.454-4.723,26.411-10.979,38.539-18.909l3.637-2.373l-0.314-1.075c34.365-24.622,59.788-60.966,70.303-103.17l1.894,1.63
			l1.921-9.909c2.207-11.351,3.316-22.764,3.316-33.914C362.842,151.604,354.403,120.664,338.444,93.39z M347.958,199.338
			c-1.527-1.561-3.574-2.424-5.781-2.447h-0.062c-0.863,0-1.698,0.149-2.465,0.436l-0.126-0.098v0.143
			c-1.772,0.681-3.168,2.076-3.837,3.911c-1.475,4.071,1.161,8.062,3.442,10.544c-0.445,4.455-1.709,9.812-2.578,12.746
			c-1.155,3.825-6.599,9.995-14.427,13.986c-0.309-1.344-0.767-2.888-1.858-4.26c-3.128-3.923-8.663-5.998-15.999-5.998
			c-6.347,0-13.906,1.583-20.23,4.26c-8.646,3.613-12.437,8.822-15.21,12.613c-0.983,1.338-1.818,2.482-2.619,3.202
			c-3.831,3.442-14.706,6.645-21.889,8.761c-1.921,0.571-3.739,1.104-5.363,1.611c-10.31,3.26-9.972,14.37-9.721,22.484
			c0.098,3.27,0.194,6.655-0.194,9.549c-0.835,6.141,0.206,11.133,3.1,14.861c2.504,3.23,6.347,5.3,10.83,5.826
			c3.425,0.4,8.908,0.148,14.421-0.126c4.168-0.218,8.806-0.395,10.841-0.286c0.869,2.276,2.064,6.633,2.985,9.995
			c0.194,0.743,0.405,1.521,0.617,2.288c-10.315,6.655-21.374,12.259-33.062,16.559c-17.2,5.93-35.298,9.046-53.689,9.046
			l-0.006,1.201c-0.011,0-0.022,0-0.034,0v-1.201c-67.698,0-129.173-42.027-154.212-104.972c3.071-3.739,3.791-8.342,4.269-11.412
			c0.569-3.683,1.341-8.721,4.651-16.297c4.583-10.48,5.873-14.752,6.281-17.199c0.38-0.606,0.978-1.481,1.91-2.871l1.101-1.646
			c8.237-12.334,9.286-21.309,10.615-32.667l0.075-0.641c0.375-3.242,0.792-6.873,1.447-11.104
			c1.881-12.162,7.356-19.141,12.637-25.862c1.649-2.087,3.202-4.065,4.52-5.992c2.888-4.163,4.812-9.638,6.844-15.428
			c1.029-2.922,3.637-10.275,4.989-12.531c2.061,0.229,5.543,1.512,7.805,3.988c1.301,1.435,1.815,2.81,1.656,4.492
			c-0.583,6.521-3.646,14.203-6.476,21.294c-3.634,9.077-6.504,16.242-5.092,23.229c2.47,12.354,12.997,17.483,17.986,19.908
			c1.658,0.849,3.854,1.375,5.721,1.375c8.028,0,11.559-6.33,14.444-11.511c0.849-1.529,3.425-6.178,4.28-6.898
			c7.871-2.788,13.9-8.877,19.247-14.27l0.529-0.537c1.247-1.272,2.447-2.487,3.471-3.396c3.396,4.783,7.882,7.447,10.95,9.269
			c0.615,0.363,2.09,1.241,2.788,1.767c0.332,2.173,0.62,5.569,0.917,9.149l0.094,1.118c1.413,16.874,2.587,27.572,7.019,33.796
			c0.932,1.31,1.944,2.459,3.005,3.477c-1.481,0.337-3.219,1.149-4.923,2.904c-5.152,5.324-7.977,18.086-7.842,22.266
			c0.171,5.656,2.19,23.342,9.029,30.335c6.078,6.146,22.826,11.333,30.843,8.92c2.699-0.807,4.724-2.671,6.496-4.312
			c2.35-2.173,3.625-3.34,5.443-2.974c5.964,1.121,10.801-2.618,13.209-9.606c1.841-5.357,2.762-15.427-2.631-19.646
			c-1.898-1.476-4.288-2.195-7.33-2.195c-2.517,0-5.181,0.491-7.76,0.96c-2.064,0.372-4.203,0.767-5.655,0.767
			c-0.32,0-0.509-0.012-0.521,0.012c-3.882-2.459-10.218-6.645-16.559-19.688c-0.154-0.326-0.326-0.646-0.486-0.955
			c0.629,0.246,1.229,0.475,1.807,0.687c0.623,0.239,1.304,0.457,1.842,0.737c1.933,2.339,5.838,6.547,12.064,6.547
			c4.632,0,12.671-2.195,14.513-17.074c0.915-7.971-1.784-13.405-3.809-16.625c0.264-0.323,0.572-0.691,0.938-1.106
			c5.071-5.755,7.353-7.496,10.063-9.555c3.167-2.373,6.759-5.066,13.426-12.574c13.277-14.918,22.077-38.462,22.077-47.491
			c0-3.834-1.344-6.879-2.916-9.221c3.757-2.781,6.775-5.506,9.589-8.039c5.946-5.364,9.218-8.314,16.96-9.335
			c5.249-0.697,9.034-0.732,10.921-0.363c-0.731,2.027-2.053,5.252-4.426,10.393l-0.457,1.026c-0.469,1.023-0.915,2.001-1.321,2.922
			c-6.192,1.218-10.115,5.315-10.526,11.03c-0.669,9.357,6.667,11.811,13.78,14.181c14.947,4.989,21.14,2.922,27.812-0.052
			l3.957-1.727c1.584-0.669,3.259-1.553,4.975-2.59c11.67,22.938,18.297,48.852,18.297,76.301c0,6.221-0.365,12.351-1.023,18.412
			C348.209,199.67,348.113,199.493,347.958,199.338z M180.3,200.493c7.754,15.462,16.022,20.688,20.522,23.536
			c3.465,2.184,9.022,1.669,14.312,0.709c1.922-0.35,3.911-0.709,5.341-0.755c0.286,2.361-0.503,6.541-1.584,8.085
			c-7.164-0.961-11.796,3.305-14.724,6.01c-0.669,0.617-1.681,1.561-1.915,1.698c-0.178,0.058-0.704,0.177-1.744,0.177
			c-5.741,0-14.821-3.505-17.386-6.095c-2.782-2.831-5.447-14.735-5.681-22.478C177.413,209.322,178.799,203.97,180.3,200.493z
			 M325.423,94.859c-1.378,0.861-2.71,1.576-3.922,2.079l-4.123,1.804c-3.46,1.536-5.083,2.213-7.634,2.213
			c-2.722,0-6.444-0.817-11.722-2.576c-2.185-0.732-4.838-1.616-5.832-2.23c0.143-0.095,0.537-0.263,1.234-0.392
			c2.139-0.389,6.107-1.101,7.525-4.766c0.537-1.352,1.28-2.988,2.099-4.786l0.457-1.007c2.75-5.973,4.478-10.152,5.433-13.214
			C315.034,79.126,320.569,86.768,325.423,94.859z M180.541,12.594c44.418,0,84.855,17.269,115.035,45.413
			c-2.968-0.117-6.444,0.112-10.762,0.686c-11.333,1.487-16.862,6.47-23.397,12.365c-2.928,2.647-6.244,5.641-10.396,8.509
			c-1.59,1.089-2.842,2.112-3.831,3.139l-3.82,3.951l4.712,5.124c1.722,1.844,2.945,3.291,2.945,5.112
			c0,5.563-7.222,26.337-19.115,39.709c-5.89,6.63-8.841,8.843-11.837,11.093c-2.876,2.188-5.85,4.454-11.688,11.082
			c-4.34,4.932-4.895,7.402-4.895,9.006v1.178l0.457,1.089c0.258,0.615,0.544,1.095,1.602,2.633
			c1.532,2.279,3.442,5.112,2.854,10.264c-0.549,4.432-1.516,6.673-2.877,6.673c-1.086,0-2.235-1.315-3.773-3.18
			c-1.636-1.704-3.945-2.573-6.141-3.407c-3.706-1.401-7.892-2.982-10.57-6.736c-2.888-4.057-3.954-16.766-4.889-27.976
			l-0.095-1.118c-0.363-4.294-0.669-8-1.112-10.587c-0.821-4.989-4.44-7.145-8.28-9.429c-2.788-1.655-5.95-3.536-7.899-6.767
			c-2.699-4.492-6.018-5.435-8.331-5.435c-2.999,0-5.101,1.587-6.341,2.519c-2.056,1.476-4.057,3.514-6.178,5.667l-0.521,0.529
			c-4.44,4.48-9.475,9.555-14.815,11.448c-4.386,1.555-7.399,6.47-10.655,12.331c-1.821,3.265-3.091,5.409-4.091,5.409l-0.586-0.157
			c-5.246-2.559-10.475-5.569-11.71-11.728c-0.72-3.568,1.693-9.592,4.621-16.9c2.996-7.524,6.393-16.044,7.13-24.264
			c0.452-4.929-1.152-9.566-4.66-13.432c-6.396-6.996-16.056-8.995-20.856-7.248l-0.926,0.415c-4.085,2.256-6.71,8.04-10.715,19.37
			c-1.69,4.806-3.437,9.784-5.443,12.677c-1.195,1.738-2.582,3.505-4.077,5.387c-5.644,7.19-12.668,16.136-15.013,31.332
			c-0.678,4.402-1.112,8.185-1.504,11.559l5.821,0.666l-5.892-0.06c-1.235,10.563-2.053,17.543-8.723,27.532l-1.101,1.646
			c-1.904,2.842-2.619,3.917-3.116,4.946l-0.486,1.006l-0.08,1.115c-0.061,0.801-0.715,3.849-5.504,14.805
			c-3.925,8.977-4.872,15.141-5.492,19.206c-0.552,3.517-1.072,5.312-2.355,6.267c-6.102-17.434-9.455-36.132-9.455-55.619
			C11.71,88.332,87.449,12.594,180.541,12.594z M282.024,316.249c-2.733-9.961-4.231-14.684-8.589-16.147
			c-1.692-0.572-3.848-0.812-7.216-0.812c-2.756,0-6.09,0.172-9.446,0.354c-4.677,0.24-9.491,0.555-12.419,0.194
			c-0.961-0.119-2.242-0.445-2.962-1.372c-0.869-1.115-1.133-3.294-0.749-6.118c0.52-3.859,0.399-7.725,0.291-11.471
			c-0.172-5.878-0.172-10.418,1.544-10.967c1.556-0.492,3.305-0.995,5.152-1.544c9.657-2.848,20.602-6.062,26.405-11.281
			c1.71-1.532,3.002-3.3,4.249-5.004c2.401-3.282,4.654-6.37,10.292-8.731c4.975-2.092,10.836-3.339,15.702-3.339
			c3.636,0,5.638,0.709,6.473,1.275c0.034,0.143,0.062,0.297,0.097,0.451c1.87,8.737,7.6,11.739,16.297,7.417
			c4.151-2.076,7.931-4.712,11.133-7.605C326.831,271.432,307.171,297.276,282.024,316.249z"/>
		<path style="fill:#030303;" d="M264.87,150.958c-3.064,0-7.616,1.253-11.836,7.233c-4.312,6.096-6.072,7.8-7.64,9.304
			c-1.475,1.424-2.864,2.768-5.181,6.247l-17.359,26.192l12.442-1.373c1.738-0.194,3.202-0.16,4.231-0.04
			c1.692,0.234,2.607,0.784,3.865,1.55c1.572,0.938,3.729,2.23,6.759,2.23c3.248,0,6.581-1.453,11.145-4.85
			c13.546-10.063,19.95-20.33,19.029-30.497C279.868,161.528,273.99,150.958,264.87,150.958z M254.315,188.045
			c-2.797,2.076-3.94,2.465-3.854,2.568c-0.354-0.138-0.675-0.366-1.041-0.596c-1.08-0.651-2.516-1.509-4.494-2.195l5.032-7.604
			c1.606-2.413,2.344-3.128,3.567-4.303c1.83-1.77,4.111-3.971,9.058-10.967c1.218-1.715,2.104-2.235,2.253-2.278
			c1.212,0.194,3.574,3.714,3.819,5.312C269.181,173.67,264.092,180.798,254.315,188.045z"/>
	</g>
</g>
<g>
</g>
<g>
</g>
<g>
</g>
<g>
</g>
<g>
</g>
<g>
</g>
<g>
</g>
<g>
</g>
<g>
</g>
<g>
</g>
<g>
</g>
<g>
</g>
<g>
</g>
<g>
</g>
<g>
</g>
</svg>
